<?xml version="1.0" encoding="utf-8"?>
<!-- Generator: Adobe Illustrator 24.1.0, SVG Export Plug-In . SVG Version: 6.00 Build 0)  -->
<svg version="1.1" id="Слой_1" xmlns="http://www.w3.org/2000/svg" xmlns:xlink="http://www.w3.org/1999/xlink" x="0px" y="0px"
	 viewBox="0 0 260 50" style="enable-background:new 0 0 260 50;" xml:space="preserve">
<style type="text/css">
	.st0{fill:#FFFFFF;}
	.st1{fill:#42A9ED;}
</style>
<g>
	<path class="st0" d="M2.2,33.7V12.8h4.8v16.7h10.1v4.2H2.2z"/>
	<path class="st0" d="M28.3,33.8c-1.6,0-3-0.3-4.3-0.9c-1.3-0.6-2.4-1.4-3.3-2.4c-0.9-1-1.6-2.2-2.1-3.4s-0.7-2.6-0.7-3.9
		c0-1.4,0.3-2.7,0.8-4c0.5-1.3,1.2-2.4,2.2-3.4c0.9-1,2-1.8,3.3-2.3c1.3-0.6,2.7-0.9,4.2-0.9c1.6,0,3,0.3,4.2,0.9s2.4,1.4,3.3,2.4
		c0.9,1,1.6,2.2,2.1,3.4s0.7,2.6,0.7,3.9c0,1.4-0.3,2.7-0.8,4c-0.5,1.3-1.2,2.4-2.2,3.4c-0.9,1-2,1.8-3.3,2.4
		C31.2,33.5,29.8,33.8,28.3,33.8z M22.8,23.2c0,0.8,0.1,1.6,0.4,2.3c0.2,0.8,0.6,1.4,1,2s1,1.1,1.7,1.4s1.5,0.5,2.4,0.5
		c0.9,0,1.7-0.2,2.4-0.5c0.7-0.4,1.3-0.8,1.7-1.5c0.5-0.6,0.8-1.3,1-2c0.2-0.8,0.3-1.5,0.3-2.3c0-0.8-0.1-1.6-0.4-2.3
		s-0.6-1.4-1.1-2c-0.5-0.6-1.1-1.1-1.7-1.4c-0.7-0.3-1.5-0.5-2.3-0.5c-0.9,0-1.7,0.2-2.4,0.5c-0.7,0.4-1.2,0.8-1.7,1.4
		c-0.5,0.6-0.8,1.3-1,2C22.9,21.7,22.8,22.4,22.8,23.2z"/>
	<path class="st0" d="M41.5,33.7V12.8h9.4c1,0,1.9,0.2,2.7,0.6c0.8,0.4,1.6,0.9,2.2,1.6c0.6,0.7,1.1,1.4,1.4,2.3
		c0.3,0.8,0.5,1.7,0.5,2.6c0,0.9-0.1,1.7-0.4,2.5c-0.3,0.8-0.7,1.5-1.2,2.1c-0.5,0.6-1.1,1.1-1.8,1.5l4.6,7.8h-5.3l-4-6.8h-3.3v6.8
		H41.5z M46.3,22.7h4.4c0.4,0,0.7-0.1,1-0.4c0.3-0.2,0.6-0.6,0.8-1c0.2-0.4,0.3-0.9,0.3-1.5c0-0.6-0.1-1.1-0.3-1.5
		c-0.2-0.4-0.5-0.8-0.8-1C51.3,17.1,51,17,50.6,17h-4.3V22.7z"/>
	<path class="st0" d="M76,29.4v4.2H61.2V12.8h14.4V17h-9.6v4.1h8.3V25h-8.3v4.5H76z"/>
	<path class="st0" d="M95.4,33.7V21.2l-4.5,9.1h-2.7l-4.5-9.1v12.5h-4.8V12.8h5.2l5.4,10.9L95,12.8h5.2v20.9H95.4z"/>
	<path class="st0" d="M104.3,33.7V12.8h4.8v20.9H104.3z"/>
	<path class="st0" d="M113.1,33.7V12.8h8.9c1,0,1.9,0.2,2.8,0.6c0.8,0.4,1.6,0.9,2.2,1.6c0.6,0.7,1.1,1.4,1.4,2.3
		c0.3,0.8,0.5,1.7,0.5,2.6c0,1.2-0.3,2.3-0.8,3.4c-0.6,1.1-1.3,2-2.3,2.6c-1,0.7-2.2,1-3.5,1h-4.2v6.8H113.1z M117.9,22.7h4
		c0.4,0,0.7-0.1,1-0.3c0.3-0.2,0.6-0.5,0.8-1c0.2-0.4,0.3-1,0.3-1.6c0-0.6-0.1-1.2-0.3-1.6c-0.2-0.4-0.5-0.7-0.9-0.9
		c-0.3-0.2-0.7-0.3-1.1-0.3h-3.8V22.7z"/>
	<path class="st0" d="M144,18.9c-0.1-0.1-0.3-0.3-0.6-0.5c-0.4-0.2-0.8-0.4-1.3-0.7s-1.1-0.4-1.7-0.6s-1.3-0.3-1.9-0.3
		c-0.8,0-1.5,0.1-1.9,0.4c-0.5,0.3-0.7,0.7-0.7,1.3c0,0.5,0.2,0.8,0.5,1.1s0.8,0.5,1.5,0.7c0.7,0.2,1.4,0.4,2.4,0.7
		c1.3,0.4,2.5,0.8,3.5,1.3s1.7,1.1,2.3,1.9c0.5,0.8,0.8,1.8,0.8,3.1c0,1.2-0.2,2.2-0.6,3c-0.4,0.8-1,1.5-1.8,2
		c-0.7,0.5-1.6,0.9-2.5,1.1s-1.9,0.3-2.9,0.3c-1,0-2.1-0.1-3.1-0.3c-1.1-0.2-2.1-0.5-3.1-0.9c-1-0.4-1.9-0.8-2.7-1.4l2.1-4.2
		c0.1,0.1,0.3,0.3,0.8,0.5c0.4,0.3,1,0.5,1.6,0.8c0.6,0.3,1.4,0.5,2.1,0.8c0.8,0.2,1.6,0.3,2.4,0.3c0.9,0,1.5-0.1,1.9-0.4
		c0.4-0.3,0.6-0.6,0.6-1.1c0-0.5-0.2-0.9-0.7-1.2c-0.4-0.3-1-0.6-1.8-0.8c-0.8-0.2-1.6-0.5-2.6-0.8c-1.3-0.4-2.3-0.8-3.2-1.3
		c-0.8-0.5-1.5-1.1-1.9-1.8c-0.4-0.7-0.6-1.6-0.6-2.6c0-1.5,0.3-2.7,1-3.7c0.7-1,1.6-1.8,2.8-2.3c1.2-0.5,2.5-0.8,3.9-0.8
		c1,0,1.9,0.1,2.8,0.4s1.8,0.5,2.6,0.9c0.8,0.4,1.5,0.7,2.1,1.1L144,18.9z"/>
	<path class="st0" d="M158.6,33.8c-1.7,0-3.1-0.3-4.3-0.8c-1.2-0.6-2.1-1.3-2.9-2.3c-0.7-1-1.3-2.1-1.6-3.3
		c-0.3-1.2-0.5-2.6-0.5-3.9V12.8h4.8v10.7c0,0.8,0.1,1.5,0.2,2.3s0.4,1.4,0.8,2c0.4,0.6,0.8,1,1.4,1.4c0.6,0.3,1.3,0.5,2.1,0.5
		c0.8,0,1.6-0.2,2.1-0.5c0.6-0.3,1-0.8,1.4-1.4c0.3-0.6,0.6-1.2,0.7-2c0.2-0.7,0.2-1.5,0.2-2.2V12.8h4.8v10.7c0,1.5-0.2,2.8-0.5,4.1
		c-0.4,1.3-0.9,2.4-1.7,3.3c-0.7,1-1.7,1.7-2.9,2.2C161.6,33.6,160.2,33.8,158.6,33.8z"/>
	<path class="st0" d="M188.1,33.7V21.2l-4.5,9.1H181l-4.5-9.1v12.5h-4.8V12.8h5.2l5.4,10.9l5.5-10.9h5.2v20.9H188.1z"/>
	<path class="st0" d="M196.6,33.7v-4.8h3.9v4.8H196.6z"/>
	<path class="st1" d="M208.9,21.7v12H204V12.8h3.8l9.7,12.3V12.8h4.8v20.9h-4L208.9,21.7z"/>
	<path class="st1" d="M241.1,29.4v4.2h-14.7V12.8h14.4V17h-9.6v4.1h8.3V25h-8.3v4.5H241.1z"/>
	<path class="st1" d="M260,17h-6.4v16.7h-4.8V17h-6.4v-4.2H260V17z"/>
</g>
<g>
</g>
<g>
</g>
<g>
</g>
<g>
</g>
<g>
</g>
<g>
</g>
<g>
</g>
<g>
</g>
<g>
</g>
<g>
</g>
<g>
</g>
<g>
</g>
<g>
</g>
<g>
</g>
<g>
</g>
</svg>
